{
    "asset" : {
        "generator" : "Khronos glTF Blender I/O v1.3.48",
        "version" : "2.0"
    },
    "scene" : 0,
    "scenes" : [
        {
            "extras" : {
                "glTF2ExportSettings" : {
                    "export_animations" : 1,
                    "export_cameras" : 0,
                    "export_colors" : 1,
                    "export_extras" : 1,
                    "export_force_sampling" : 0,
                    "export_format" : "GLTF_EMBEDDED",
                    "export_image_format" : "AUTO",
                    "export_lights" : 0,
                    "export_morph" : 1,
                    "export_normals" : 1,
                    "export_skins" : 1,
                    "export_texcoords" : 1,
                    "export_yup" : 1,
                    "use_selection" : 1
                }
            },
            "name" : "Scene",
            "nodes" : [
                0
            ]
        }
    ],
    "nodes" : [
        {
            "extras" : {
                "sparkar_optimization" : {
                    "InvertedReducePercentage" : 0
                },
                "spark_blender_addon" : 1
            },
            "mesh" : 0,
            "name" : "frame"
        }
    ],
    "materials" : [
        {
            "doubleSided" : true,
            "emissiveFactor" : [
                0,
                0,
                0
            ],
            "name" : "frame",
            "pbrMetallicRoughness" : {
                "baseColorFactor" : [
                    0,
                    0,
                    0,
                    1
                ],
                "metallicFactor" : 0,
                "roughnessFactor" : 1
            }
        },
        {
            "doubleSided" : true,
            "emissiveFactor" : [
                0,
                0,
                0
            ],
            "name" : "lensa",
            "pbrMetallicRoughness" : {
                "baseColorFactor" : [
                    0.800000011920929,
                    0.800000011920929,
                    0.800000011920929,
                    1
                ],
                "metallicFactor" : 0,
                "roughnessFactor" : 0
            }
        }
    ],
    "meshes" : [
        {
            "name" : "Circle",
            "primitives" : [
                {
                    "attributes" : {
                        "POSITION" : 0,
                        "NORMAL" : 1,
                        "TEXCOORD_0" : 2
                    },
                    "indices" : 3,
                    "material" : 0
                },
                {
                    "attributes" : {
                        "POSITION" : 4,
                        "NORMAL" : 5,
                        "TEXCOORD_0" : 6
                    },
                    "indices" : 7,
                    "material" : 1
                }
            ]
        }
    ],
    "accessors" : [
        {
            "bufferView" : 0,
            "componentType" : 5126,
            "count" : 2592,
            "max" : [
                0.2520507872104645,
                0.08340733498334885,
                0.011460097506642342
            ],
            "min" : [
                -0.2520507872104645,
                -0.06731206923723221,
                -0.38853996992111206
            ],
            "type" : "VEC3"
        },
        {
            "bufferView" : 1,
            "componentType" : 5126,
            "count" : 2592,
            "type" : "VEC3"
        },
        {
            "bufferView" : 2,
            "componentType" : 5126,
            "count" : 2592,
            "type" : "VEC2"
        },
        {
            "bufferView" : 3,
            "componentType" : 5123,
            "count" : 3888,
            "type" : "SCALAR"
        },
        {
            "bufferView" : 4,
            "componentType" : 5126,
            "count" : 408,
            "max" : [
                0.1966925710439682,
                0.07850023359060287,
                0.007812041323632002
            ],
            "min" : [
                -0.1966925710439682,
                -0.06482303142547607,
                0.0062174187041819096
            ],
            "type" : "VEC3"
        },
        {
            "bufferView" : 5,
            "componentType" : 5126,
            "count" : 408,
            "type" : "VEC3"
        },
        {
            "bufferView" : 6,
            "componentType" : 5126,
            "count" : 408,
            "type" : "VEC2"
        },
        {
            "bufferView" : 7,
            "componentType" : 5123,
            "count" : 792,
            "type" : "SCALAR"
        }
    ],
    "bufferViews" : [
        {
            "buffer" : 0,
            "byteLength" : 31104,
            "byteOffset" : 0
        },
        {
            "buffer" : 0,
            "byteLength" : 31104,
            "byteOffset" : 31104
        },
        {
            "buffer" : 0,
            "byteLength" : 20736,
            "byteOffset" : 62208
        },
        {
            "buffer" : 0,
            "byteLength" : 7776,
            "byteOffset" : 82944
        },
        {
            "buffer" : 0,
            "byteLength" : 4896,
            "byteOffset" : 90720
        },
        {
            "buffer" : 0,
            "byteLength" : 4896,
            "byteOffset" : 95616
        },
        {
            "buffer" : 0,
            "byteLength" : 3264,
            "byteOffset" : 100512
        },
        {
            "buffer" : 0,
            "byteLength" : 1584,
            "byteOffset" : 103776
        }
    ],
    "buffers" : [
        {
            "byteLength" : 105360,
            "uri" : "data:application/octet-stream;base64,"
        }
    ]
}
