{
    "asset" : {
        "generator" : "Khronos glTF Blender I/O v1.3.48",
        "version" : "2.0"
    },
    "scene" : 0,
    "scenes" : [
        {
            "extras" : {
                "glTF2ExportSettings" : {
                    "export_animations" : 1,
                    "export_cameras" : 0,
                    "export_colors" : 1,
                    "export_extras" : 1,
                    "export_force_sampling" : 0,
                    "export_format" : "GLTF_EMBEDDED",
                    "export_image_format" : "AUTO",
                    "export_lights" : 0,
                    "export_morph" : 1,
                    "export_normals" : 1,
                    "export_skins" : 1,
                    "export_texcoords" : 1,
                    "export_yup" : 1,
                    "use_selection" : 1
                }
            },
            "name" : "Scene",
            "nodes" : [
                0
            ]
        }
    ],
    "nodes" : [
        {
            "extras" : {
                "sparkar_optimization" : {
                    "InvertedReducePercentage" : 0
                },
                "spark_blender_addon" : 1
            },
            "mesh" : 0,
            "name" : "frame",
            "rotation" : [
                0.7071068286895752,
                0,
                0,
                0.7071068286895752
            ],
            "scale" : [
                0.07686404138803482,
                0.07686404138803482,
                0.07686404138803482
            ]
        }
    ],
    "materials" : [
        {
            "doubleSided" : true,
            "name" : "frame",
            "pbrMetallicRoughness" : {}
        },
        {
            "doubleSided" : true,
            "emissiveFactor" : [
                0,
                0,
                0
            ],
            "name" : "lensa",
            "pbrMetallicRoughness" : {
                "baseColorFactor" : [
                    0.800000011920929,
                    0.800000011920929,
                    0.800000011920929,
                    1
                ],
                "metallicFactor" : 0.1428571492433548,
                "roughnessFactor" : 0
            }
        }
    ],
    "meshes" : [
        {
            "name" : "Circle.001",
            "primitives" : [
                {
                    "attributes" : {
                        "POSITION" : 0,
                        "NORMAL" : 1,
                        "TEXCOORD_0" : 2
                    },
                    "indices" : 3,
                    "material" : 0
                },
                {
                    "attributes" : {
                        "POSITION" : 4,
                        "NORMAL" : 5,
                        "TEXCOORD_0" : 6
                    },
                    "indices" : 7,
                    "material" : 1
                }
            ]
        }
    ],
    "accessors" : [
        {
            "bufferView" : 0,
            "componentType" : 5126,
            "count" : 1135,
            "max" : [
                22.931556701660156,
                0.19692791998386383,
                1.6951713562011719
            ],
            "min" : [
                -22.931556701660156,
                -39.567771911621094,
                -5.167362213134766
            ],
            "type" : "VEC3"
        },
        {
            "bufferView" : 1,
            "componentType" : 5126,
            "count" : 1135,
            "type" : "VEC3"
        },
        {
            "bufferView" : 2,
            "componentType" : 5126,
            "count" : 1135,
            "type" : "VEC2"
        },
        {
            "bufferView" : 3,
            "componentType" : 5123,
            "count" : 1914,
            "type" : "SCALAR"
        },
        {
            "bufferView" : 4,
            "componentType" : 5126,
            "count" : 456,
            "max" : [
                21.04994010925293,
                0.2628049850463867,
                5.6891608238220215
            ],
            "min" : [
                -21.04994010925293,
                0.008234385401010513,
                -7.603686332702637
            ],
            "type" : "VEC3"
        },
        {
            "bufferView" : 5,
            "componentType" : 5126,
            "count" : 456,
            "type" : "VEC3"
        },
        {
            "bufferView" : 6,
            "componentType" : 5126,
            "count" : 456,
            "type" : "VEC2"
        },
        {
            "bufferView" : 7,
            "componentType" : 5123,
            "count" : 888,
            "type" : "SCALAR"
        }
    ],
    "bufferViews" : [
        {
            "buffer" : 0,
            "byteLength" : 13620,
            "byteOffset" : 0
        },
        {
            "buffer" : 0,
            "byteLength" : 13620,
            "byteOffset" : 13620
        },
        {
            "buffer" : 0,
            "byteLength" : 9080,
            "byteOffset" : 27240
        },
        {
            "buffer" : 0,
            "byteLength" : 3828,
            "byteOffset" : 36320
        },
        {
            "buffer" : 0,
            "byteLength" : 5472,
            "byteOffset" : 40148
        },
        {
            "buffer" : 0,
            "byteLength" : 5472,
            "byteOffset" : 45620
        },
        {
            "buffer" : 0,
            "byteLength" : 3648,
            "byteOffset" : 51092
        },
        {
            "buffer" : 0,
            "byteLength" : 1776,
            "byteOffset" : 54740
        }
    ],
    "buffers" : [
        {
            "byteLength" : 56516,
            "uri" : "data:application/octet-stream;base64,"
        }
    ]
}
