{
    "asset" : {
        "generator" : "Khronos glTF Blender I/O v1.3.48",
        "version" : "2.0"
    },
    "scene" : 0,
    "scenes" : [
        {
            "extras" : {
                "glTF2ExportSettings" : {
                    "export_animations" : 1,
                    "export_cameras" : 0,
                    "export_colors" : 1,
                    "export_extras" : 1,
                    "export_force_sampling" : 0,
                    "export_format" : "GLTF_EMBEDDED",
                    "export_image_format" : "AUTO",
                    "export_lights" : 0,
                    "export_morph" : 1,
                    "export_normals" : 1,
                    "export_skins" : 1,
                    "export_texcoords" : 1,
                    "export_yup" : 1,
                    "use_selection" : 1
                }
            },
            "name" : "Scene",
            "nodes" : [
                0
            ]
        }
    ],
    "nodes" : [
        {
            "extras" : {
                "sparkar_optimization" : {
                    "InvertedReducePercentage" : 0
                },
                "spark_blender_addon" : 1
            },
            "mesh" : 0,
            "name" : "frame"
        }
    ],
    "materials" : [
        {
            "doubleSided" : true,
            "emissiveFactor" : [
                0,
                0,
                0
            ],
            "name" : "frame",
            "pbrMetallicRoughness" : {
                "baseColorFactor" : [
                    0.008075779303908348,
                    0.008075779303908348,
                    0.008075779303908348,
                    1
                ],
                "metallicFactor" : 0,
                "roughnessFactor" : 0.773809552192688
            }
        },
        {
            "doubleSided" : true,
            "emissiveFactor" : [
                0,
                0,
                0
            ],
            "name" : "Material.001",
            "pbrMetallicRoughness" : {
                "baseColorFactor" : [
                    0.800000011920929,
                    0.800000011920929,
                    0.800000011920929,
                    1
                ],
                "metallicFactor" : 0.1428571492433548,
                "roughnessFactor" : 0.035714298486709595
            }
        }
    ],
    "meshes" : [
        {
            "name" : "Circle",
            "primitives" : [
                {
                    "attributes" : {
                        "POSITION" : 0,
                        "NORMAL" : 1,
                        "TEXCOORD_0" : 2
                    },
                    "indices" : 3,
                    "material" : 0
                },
                {
                    "attributes" : {
                        "POSITION" : 4,
                        "NORMAL" : 5,
                        "TEXCOORD_0" : 6
                    },
                    "indices" : 7,
                    "material" : 1
                }
            ]
        }
    ],
    "accessors" : [
        {
            "bufferView" : 0,
            "componentType" : 5126,
            "count" : 2480,
            "max" : [
                1.180486798286438,
                0.2927528917789459,
                0.0553155355155468
            ],
            "min" : [
                -1.180486798286438,
                -0.34268057346343994,
                -1.944684386253357
            ],
            "type" : "VEC3"
        },
        {
            "bufferView" : 1,
            "componentType" : 5126,
            "count" : 2480,
            "type" : "VEC3"
        },
        {
            "bufferView" : 2,
            "componentType" : 5126,
            "count" : 2480,
            "type" : "VEC2"
        },
        {
            "bufferView" : 3,
            "componentType" : 5123,
            "count" : 3720,
            "type" : "SCALAR"
        },
        {
            "bufferView" : 4,
            "componentType" : 5126,
            "count" : 432,
            "max" : [
                0.9128063917160034,
                0.2319682538509369,
                0.049172692000865936
            ],
            "min" : [
                -0.9128063917160034,
                -0.31111252307891846,
                0.023981623351573944
            ],
            "type" : "VEC3"
        },
        {
            "bufferView" : 5,
            "componentType" : 5126,
            "count" : 432,
            "type" : "VEC3"
        },
        {
            "bufferView" : 6,
            "componentType" : 5126,
            "count" : 432,
            "type" : "VEC2"
        },
        {
            "bufferView" : 7,
            "componentType" : 5123,
            "count" : 840,
            "type" : "SCALAR"
        }
    ],
    "bufferViews" : [
        {
            "buffer" : 0,
            "byteLength" : 29760,
            "byteOffset" : 0
        },
        {
            "buffer" : 0,
            "byteLength" : 29760,
            "byteOffset" : 29760
        },
        {
            "buffer" : 0,
            "byteLength" : 19840,
            "byteOffset" : 59520
        },
        {
            "buffer" : 0,
            "byteLength" : 7440,
            "byteOffset" : 79360
        },
        {
            "buffer" : 0,
            "byteLength" : 5184,
            "byteOffset" : 86800
        },
        {
            "buffer" : 0,
            "byteLength" : 5184,
            "byteOffset" : 91984
        },
        {
            "buffer" : 0,
            "byteLength" : 3456,
            "byteOffset" : 97168
        },
        {
            "buffer" : 0,
            "byteLength" : 1680,
            "byteOffset" : 100624
        }
    ],
    "buffers" : [
        {
            "byteLength" : 102304,
            "uri" : "data:application/octet-stream;base64,"
        }
    ]
}
