{
    "asset" : {
        "generator" : "Khronos glTF Blender I/O v1.3.48",
        "version" : "2.0"
    },
    "scene" : 0,
    "scenes" : [
        {
            "extras" : {
                "glTF2ExportSettings" : {
                    "export_animations" : 1,
                    "export_cameras" : 0,
                    "export_colors" : 1,
                    "export_extras" : 1,
                    "export_force_sampling" : 0,
                    "export_format" : "GLTF_EMBEDDED",
                    "export_image_format" : "AUTO",
                    "export_lights" : 0,
                    "export_morph" : 1,
                    "export_normals" : 1,
                    "export_skins" : 1,
                    "export_texcoords" : 1,
                    "export_yup" : 1,
                    "use_selection" : 1
                }
            },
            "name" : "Scene",
            "nodes" : [
                0
            ]
        }
    ],
    "nodes" : [
        {
            "extras" : {
                "sparkar_optimization" : {
                    "InvertedReducePercentage" : 0
                },
                "spark_blender_addon" : 1
            },
            "mesh" : 0,
            "name" : "frame"
        }
    ],
    "materials" : [
        {
            "doubleSided" : true,
            "name" : "frame",
            "pbrMetallicRoughness" : {}
        },
        {
            "doubleSided" : true,
            "name" : "penghubung",
            "pbrMetallicRoughness" : {}
        },
        {
            "doubleSided" : true,
            "emissiveFactor" : [
                0,
                0,
                0
            ],
            "name" : "lensa",
            "pbrMetallicRoughness" : {
                "baseColorFactor" : [
                    0.800000011920929,
                    0.800000011920929,
                    0.800000011920929,
                    1
                ],
                "metallicFactor" : 0.4523809552192688,
                "roughnessFactor" : 0
            }
        }
    ],
    "meshes" : [
        {
            "name" : "Circle.004",
            "primitives" : [
                {
                    "attributes" : {
                        "POSITION" : 0,
                        "NORMAL" : 1,
                        "TEXCOORD_0" : 2
                    },
                    "indices" : 3,
                    "material" : 0
                },
                {
                    "attributes" : {
                        "POSITION" : 4,
                        "NORMAL" : 5,
                        "TEXCOORD_0" : 6
                    },
                    "indices" : 7,
                    "material" : 1
                },
                {
                    "attributes" : {
                        "POSITION" : 8,
                        "NORMAL" : 9,
                        "TEXCOORD_0" : 10
                    },
                    "indices" : 11,
                    "material" : 2
                }
            ]
        }
    ],
    "accessors" : [
        {
            "bufferView" : 0,
            "componentType" : 5126,
            "count" : 4540,
            "max" : [
                2.3093507289886475,
                0.7476266026496887,
                0.3125055432319641
            ],
            "min" : [
                -2.3093507289886475,
                -0.7805185914039612,
                -3.3510446548461914
            ],
            "type" : "VEC3"
        },
        {
            "bufferView" : 1,
            "componentType" : 5126,
            "count" : 4540,
            "type" : "VEC3"
        },
        {
            "bufferView" : 2,
            "componentType" : 5126,
            "count" : 4540,
            "type" : "VEC2"
        },
        {
            "bufferView" : 3,
            "componentType" : 5123,
            "count" : 6984,
            "type" : "SCALAR"
        },
        {
            "bufferView" : 4,
            "componentType" : 5126,
            "count" : 988,
            "max" : [
                0.25354576110839844,
                0.3967062830924988,
                0.30142414569854736
            ],
            "min" : [
                -0.25354576110839844,
                0.2699069678783417,
                0.21381130814552307
            ],
            "type" : "VEC3"
        },
        {
            "bufferView" : 5,
            "componentType" : 5126,
            "count" : 988,
            "type" : "VEC3"
        },
        {
            "bufferView" : 6,
            "componentType" : 5126,
            "count" : 988,
            "type" : "VEC2"
        },
        {
            "bufferView" : 7,
            "componentType" : 5123,
            "count" : 1656,
            "type" : "SCALAR"
        },
        {
            "bufferView" : 8,
            "componentType" : 5126,
            "count" : 240,
            "max" : [
                1.7982242107391357,
                0.6571884751319885,
                0.3125055432319641
            ],
            "min" : [
                -1.7982242107391357,
                -0.7519292235374451,
                0.31250545382499695
            ],
            "type" : "VEC3"
        },
        {
            "bufferView" : 9,
            "componentType" : 5126,
            "count" : 240,
            "type" : "VEC3"
        },
        {
            "bufferView" : 10,
            "componentType" : 5126,
            "count" : 240,
            "type" : "VEC2"
        },
        {
            "bufferView" : 11,
            "componentType" : 5123,
            "count" : 696,
            "type" : "SCALAR"
        }
    ],
    "bufferViews" : [
        {
            "buffer" : 0,
            "byteLength" : 54480,
            "byteOffset" : 0
        },
        {
            "buffer" : 0,
            "byteLength" : 54480,
            "byteOffset" : 54480
        },
        {
            "buffer" : 0,
            "byteLength" : 36320,
            "byteOffset" : 108960
        },
        {
            "buffer" : 0,
            "byteLength" : 13968,
            "byteOffset" : 145280
        },
        {
            "buffer" : 0,
            "byteLength" : 11856,
            "byteOffset" : 159248
        },
        {
            "buffer" : 0,
            "byteLength" : 11856,
            "byteOffset" : 171104
        },
        {
            "buffer" : 0,
            "byteLength" : 7904,
            "byteOffset" : 182960
        },
        {
            "buffer" : 0,
            "byteLength" : 3312,
            "byteOffset" : 190864
        },
        {
            "buffer" : 0,
            "byteLength" : 2880,
            "byteOffset" : 194176
        },
        {
            "buffer" : 0,
            "byteLength" : 2880,
            "byteOffset" : 197056
        },
        {
            "buffer" : 0,
            "byteLength" : 1920,
            "byteOffset" : 199936
        },
        {
            "buffer" : 0,
            "byteLength" : 1392,
            "byteOffset" : 201856
        }
    ],
    "buffers" : [
        {
            "byteLength" : 203248,
            "uri" : "data:application/octet-stream;base64,"
        }
    ]
}
