{
    "asset" : {
        "generator" : "Khronos glTF Blender I/O v1.3.48",
        "version" : "2.0"
    },
    "scene" : 0,
    "scenes" : [
        {
            "extras" : {
                "glTF2ExportSettings" : {
                    "export_animations" : 1,
                    "export_cameras" : 0,
                    "export_colors" : 1,
                    "export_extras" : 1,
                    "export_force_sampling" : 0,
                    "export_format" : "GLTF_EMBEDDED",
                    "export_image_format" : "AUTO",
                    "export_lights" : 0,
                    "export_morph" : 1,
                    "export_normals" : 1,
                    "export_skins" : 1,
                    "export_texcoords" : 1,
                    "export_yup" : 1,
                    "use_selection" : 1
                }
            },
            "name" : "Scene",
            "nodes" : [
                0
            ]
        }
    ],
    "nodes" : [
        {
            "extras" : {
                "sparkar_optimization" : {
                    "InvertedReducePercentage" : 0
                },
                "spark_blender_addon" : 1
            },
            "mesh" : 0,
            "name" : "frame"
        }
    ],
    "materials" : [
        {
            "doubleSided" : true,
            "name" : "frame",
            "pbrMetallicRoughness" : {}
        },
        {
            "doubleSided" : true,
            "emissiveFactor" : [
                0,
                0,
                0
            ],
            "name" : "lensa",
            "pbrMetallicRoughness" : {
                "baseColorFactor" : [
                    0.800000011920929,
                    0.800000011920929,
                    0.800000011920929,
                    1
                ],
                "metallicFactor" : 0.2142857164144516,
                "roughnessFactor" : 0.0476190447807312
            }
        }
    ],
    "meshes" : [
        {
            "name" : "Circle.002",
            "primitives" : [
                {
                    "attributes" : {
                        "POSITION" : 0,
                        "NORMAL" : 1,
                        "TEXCOORD_0" : 2
                    },
                    "indices" : 3,
                    "material" : 0
                },
                {
                    "attributes" : {
                        "POSITION" : 4,
                        "NORMAL" : 5,
                        "TEXCOORD_0" : 6
                    },
                    "indices" : 7,
                    "material" : 1
                }
            ]
        }
    ],
    "accessors" : [
        {
            "bufferView" : 0,
            "componentType" : 5126,
            "count" : 2976,
            "max" : [
                0.22767488658428192,
                0.073442742228508,
                0.008421950042247772
            ],
            "min" : [
                -0.22767482697963715,
                -0.07429520785808563,
                -0.3915780782699585
            ],
            "type" : "VEC3"
        },
        {
            "bufferView" : 1,
            "componentType" : 5126,
            "count" : 2976,
            "type" : "VEC3"
        },
        {
            "bufferView" : 2,
            "componentType" : 5126,
            "count" : 2976,
            "type" : "VEC2"
        },
        {
            "bufferView" : 3,
            "componentType" : 5123,
            "count" : 4464,
            "type" : "SCALAR"
        },
        {
            "bufferView" : 4,
            "componentType" : 5126,
            "count" : 12328,
            "max" : [
                0.17938974499702454,
                0.06534101068973541,
                0.007195236627012491
            ],
            "min" : [
                -0.17938973009586334,
                -0.06818615645170212,
                0.003778537269681692
            ],
            "type" : "VEC3"
        },
        {
            "bufferView" : 5,
            "componentType" : 5126,
            "count" : 12328,
            "type" : "VEC3"
        },
        {
            "bufferView" : 6,
            "componentType" : 5126,
            "count" : 12328,
            "type" : "VEC2"
        },
        {
            "bufferView" : 7,
            "componentType" : 5123,
            "count" : 18744,
            "type" : "SCALAR"
        }
    ],
    "bufferViews" : [
        {
            "buffer" : 0,
            "byteLength" : 35712,
            "byteOffset" : 0
        },
        {
            "buffer" : 0,
            "byteLength" : 35712,
            "byteOffset" : 35712
        },
        {
            "buffer" : 0,
            "byteLength" : 23808,
            "byteOffset" : 71424
        },
        {
            "buffer" : 0,
            "byteLength" : 8928,
            "byteOffset" : 95232
        },
        {
            "buffer" : 0,
            "byteLength" : 147936,
            "byteOffset" : 104160
        },
        {
            "buffer" : 0,
            "byteLength" : 147936,
            "byteOffset" : 252096
        },
        {
            "buffer" : 0,
            "byteLength" : 98624,
            "byteOffset" : 400032
        },
        {
            "buffer" : 0,
            "byteLength" : 37488,
            "byteOffset" : 498656
        }
    ],
    "buffers" : [
        {
            "byteLength" : 536144,
            "uri" : "data:application/octet-stream;base64,"
        }
    ]
}
