{
    "asset" : {
        "generator" : "Khronos glTF Blender I/O v1.3.48",
        "version" : "2.0"
    },
    "scene" : 0,
    "scenes" : [
        {
            "extras" : {
                "glTF2ExportSettings" : {
                    "export_animations" : 1,
                    "export_cameras" : 0,
                    "export_colors" : 1,
                    "export_extras" : 1,
                    "export_force_sampling" : 0,
                    "export_format" : "GLTF_EMBEDDED",
                    "export_image_format" : "AUTO",
                    "export_lights" : 0,
                    "export_morph" : 1,
                    "export_normals" : 1,
                    "export_skins" : 1,
                    "export_texcoords" : 1,
                    "export_yup" : 1,
                    "use_selection" : 1
                }
            },
            "name" : "Scene",
            "nodes" : [
                0
            ]
        }
    ],
    "nodes" : [
        {
            "extras" : {
                "sparkar_optimization" : {
                    "InvertedReducePercentage" : 0
                },
                "spark_blender_addon" : 1
            },
            "mesh" : 0,
            "name" : "frame"
        }
    ],
    "materials" : [
        {
            "doubleSided" : true,
            "name" : "frame",
            "pbrMetallicRoughness" : {}
        },
        {
            "doubleSided" : true,
            "name" : "Material.001",
            "pbrMetallicRoughness" : {}
        }
    ],
    "meshes" : [
        {
            "name" : "Circle",
            "primitives" : [
                {
                    "attributes" : {
                        "POSITION" : 0,
                        "NORMAL" : 1,
                        "TEXCOORD_0" : 2
                    },
                    "indices" : 3,
                    "material" : 0
                },
                {
                    "attributes" : {
                        "POSITION" : 4,
                        "NORMAL" : 5,
                        "TEXCOORD_0" : 6
                    },
                    "indices" : 7,
                    "material" : 1
                }
            ]
        }
    ],
    "accessors" : [
        {
            "bufferView" : 0,
            "componentType" : 5126,
            "count" : 2716,
            "max" : [
                1.4857804775238037,
                0.45699864625930786,
                0.16452066600322723
            ],
            "min" : [
                -1.4857807159423828,
                -0.44626131653785706,
                -1.8354793787002563
            ],
            "type" : "VEC3"
        },
        {
            "bufferView" : 1,
            "componentType" : 5126,
            "count" : 2716,
            "type" : "VEC3"
        },
        {
            "bufferView" : 2,
            "componentType" : 5126,
            "count" : 2716,
            "type" : "VEC2"
        },
        {
            "bufferView" : 3,
            "componentType" : 5123,
            "count" : 4080,
            "type" : "SCALAR"
        },
        {
            "bufferView" : 4,
            "componentType" : 5126,
            "count" : 456,
            "max" : [
                1.1546300649642944,
                0.43575218319892883,
                0.1382707804441452
            ],
            "min" : [
                -1.154630184173584,
                -0.4259992241859436,
                0.13132518529891968
            ],
            "type" : "VEC3"
        },
        {
            "bufferView" : 5,
            "componentType" : 5126,
            "count" : 456,
            "type" : "VEC3"
        },
        {
            "bufferView" : 6,
            "componentType" : 5126,
            "count" : 456,
            "type" : "VEC2"
        },
        {
            "bufferView" : 7,
            "componentType" : 5123,
            "count" : 888,
            "type" : "SCALAR"
        }
    ],
    "bufferViews" : [
        {
            "buffer" : 0,
            "byteLength" : 32592,
            "byteOffset" : 0
        },
        {
            "buffer" : 0,
            "byteLength" : 32592,
            "byteOffset" : 32592
        },
        {
            "buffer" : 0,
            "byteLength" : 21728,
            "byteOffset" : 65184
        },
        {
            "buffer" : 0,
            "byteLength" : 8160,
            "byteOffset" : 86912
        },
        {
            "buffer" : 0,
            "byteLength" : 5472,
            "byteOffset" : 95072
        },
        {
            "buffer" : 0,
            "byteLength" : 5472,
            "byteOffset" : 100544
        },
        {
            "buffer" : 0,
            "byteLength" : 3648,
            "byteOffset" : 106016
        },
        {
            "buffer" : 0,
            "byteLength" : 1776,
            "byteOffset" : 109664
        }
    ],
    "buffers" : [
        {
            "byteLength" : 111440,
            "uri" : "data:application/octet-stream;base64,"
        }
    ]
}
