{
    "asset" : {
        "generator" : "Khronos glTF Blender I/O v1.3.48",
        "version" : "2.0"
    },
    "scene" : 0,
    "scenes" : [
        {
            "extras" : {
                "glTF2ExportSettings" : {
                    "export_animations" : 1,
                    "export_cameras" : 0,
                    "export_colors" : 1,
                    "export_extras" : 1,
                    "export_force_sampling" : 0,
                    "export_format" : "GLTF_EMBEDDED",
                    "export_image_format" : "AUTO",
                    "export_lights" : 0,
                    "export_morph" : 1,
                    "export_normals" : 1,
                    "export_skins" : 1,
                    "export_texcoords" : 1,
                    "export_yup" : 1,
                    "use_selection" : 1
                }
            },
            "name" : "Scene",
            "nodes" : [
                0
            ]
        }
    ],
    "nodes" : [
        {
            "extras" : {
                "sparkar_optimization" : {
                    "InvertedReducePercentage" : 0
                },
                "spark_blender_addon" : 1
            },
            "mesh" : 0,
            "name" : "lensa",
            "rotation" : [
                0.7071068286895752,
                0,
                0,
                0.7071068286895752
            ],
            "scale" : [
                0.8216423392295837,
                0.8216423392295837,
                0.8216423392295837
            ]
        }
    ],
    "materials" : [
        {
            "doubleSided" : true,
            "emissiveFactor" : [
                0,
                0,
                0
            ],
            "name" : "lensa",
            "pbrMetallicRoughness" : {
                "baseColorFactor" : [
                    0.800000011920929,
                    0.800000011920929,
                    0.800000011920929,
                    1
                ],
                "metallicFactor" : 0,
                "roughnessFactor" : 0
            }
        },
        {
            "doubleSided" : true,
            "emissiveFactor" : [
                0,
                0,
                0
            ],
            "name" : "frame",
            "pbrMetallicRoughness" : {
                "baseColorFactor" : [
                    0,
                    0,
                    0,
                    1
                ],
                "metallicFactor" : 0,
                "roughnessFactor" : 1
            }
        }
    ],
    "meshes" : [
        {
            "name" : "Circle.001",
            "primitives" : [
                {
                    "attributes" : {
                        "POSITION" : 0,
                        "NORMAL" : 1,
                        "TEXCOORD_0" : 2
                    },
                    "indices" : 3,
                    "material" : 0
                },
                {
                    "attributes" : {
                        "POSITION" : 4,
                        "NORMAL" : 5,
                        "TEXCOORD_0" : 6
                    },
                    "indices" : 7,
                    "material" : 1
                }
            ]
        }
    ],
    "accessors" : [
        {
            "bufferView" : 0,
            "componentType" : 5126,
            "count" : 432,
            "max" : [
                2.464115858078003,
                0.0387025848031044,
                0.7308481335639954
            ],
            "min" : [
                -2.464115858078003,
                0.02344757877290249,
                -1.1409800052642822
            ],
            "type" : "VEC3"
        },
        {
            "bufferView" : 1,
            "componentType" : 5126,
            "count" : 432,
            "type" : "VEC3"
        },
        {
            "bufferView" : 2,
            "componentType" : 5126,
            "count" : 432,
            "type" : "VEC2"
        },
        {
            "bufferView" : 3,
            "componentType" : 5123,
            "count" : 840,
            "type" : "SCALAR"
        },
        {
            "bufferView" : 4,
            "componentType" : 5126,
            "count" : 2624,
            "max" : [
                3.142683744430542,
                0.07175685465335846,
                0.7892350554466248
            ],
            "min" : [
                -3.142683744430542,
                -4.523343086242676,
                -1.1719073057174683
            ],
            "type" : "VEC3"
        },
        {
            "bufferView" : 5,
            "componentType" : 5126,
            "count" : 2624,
            "type" : "VEC3"
        },
        {
            "bufferView" : 6,
            "componentType" : 5126,
            "count" : 2624,
            "type" : "VEC2"
        },
        {
            "bufferView" : 7,
            "componentType" : 5123,
            "count" : 3936,
            "type" : "SCALAR"
        }
    ],
    "bufferViews" : [
        {
            "buffer" : 0,
            "byteLength" : 5184,
            "byteOffset" : 0
        },
        {
            "buffer" : 0,
            "byteLength" : 5184,
            "byteOffset" : 5184
        },
        {
            "buffer" : 0,
            "byteLength" : 3456,
            "byteOffset" : 10368
        },
        {
            "buffer" : 0,
            "byteLength" : 1680,
            "byteOffset" : 13824
        },
        {
            "buffer" : 0,
            "byteLength" : 31488,
            "byteOffset" : 15504
        },
        {
            "buffer" : 0,
            "byteLength" : 31488,
            "byteOffset" : 46992
        },
        {
            "buffer" : 0,
            "byteLength" : 20992,
            "byteOffset" : 78480
        },
        {
            "buffer" : 0,
            "byteLength" : 7872,
            "byteOffset" : 99472
        }
    ],
    "buffers" : [
        {
            "byteLength" : 107344,
            "uri" : "data:application/octet-stream;base64,"
        }
    ]
}
